<?xml version="1.0" standalone="no"?><!DOCTYPE svg PUBLIC "-//W3C//DTD SVG 1.1//EN" "http://www.w3.org/Graphics/SVG/1.1/DTD/svg11.dtd"><svg t="1607332727267" class="icon" viewBox="0 0 1024 1024" version="1.1" xmlns="http://www.w3.org/2000/svg" p-id="2978" xmlns:xlink="http://www.w3.org/1999/xlink" width="200" height="200"><defs><style type="text/css"></style></defs><path d="M393.846154 551.384615a78.769231 78.769231 0 0 1 78.769231 78.769231v315.076923a78.769231 78.769231 0 0 1-78.769231 78.769231H78.769231a78.769231 78.769231 0 0 1-78.769231-78.769231V630.153846a78.769231 78.769231 0 0 1 78.769231-78.769231h315.076923z m551.384615 0a78.769231 78.769231 0 0 1 78.769231 78.769231v315.076923a78.769231 78.769231 0 0 1-78.769231 78.769231H630.153846a78.769231 78.769231 0 0 1-78.769231-78.769231V630.153846a78.769231 78.769231 0 0 1 78.769231-78.769231h315.076923zM393.846154 630.153846H78.769231v315.076923h315.076923V630.153846z m551.384615 0H630.153846v315.076923h315.076923V630.153846zM393.846154 0a78.769231 78.769231 0 0 1 78.769231 78.769231v315.076923a78.769231 78.769231 0 0 1-78.769231 78.769231H78.769231a78.769231 78.769231 0 0 1-78.769231-78.769231V78.769231a78.769231 78.769231 0 0 1 78.769231-78.769231h315.076923z m551.384615 0a78.769231 78.769231 0 0 1 78.769231 78.769231v315.076923a78.769231 78.769231 0 0 1-78.769231 78.769231H630.153846a78.769231 78.769231 0 0 1-78.769231-78.769231V78.769231a78.769231 78.769231 0 0 1 78.769231-78.769231h315.076923zM393.846154 78.769231H78.769231v315.076923h315.076923V78.769231z m551.384615 0H630.153846v315.076923h315.076923V78.769231z" p-id="2979"></path></svg>