<?xml version="1.0" standalone="no"?><!DOCTYPE svg PUBLIC "-//W3C//DTD SVG 1.1//EN" "http://www.w3.org/Graphics/SVG/1.1/DTD/svg11.dtd"><svg t="1607332715835" class="icon" viewBox="0 0 1024 1024" version="1.1" xmlns="http://www.w3.org/2000/svg" p-id="2692" xmlns:xlink="http://www.w3.org/1999/xlink" width="200" height="200"><defs><style type="text/css"></style></defs><path d="M24.29289927 523.17494841l485.3792256 238.08546474c3.06178731 1.02059577 6.12930787 2.0469248 9.19682731 2.04692594s6.64533902-0.51603115 9.70712633-2.04692594l485.3734912-239.10606051c7.66020039-3.57781845 12.7746469-11.24375325 12.7746469-20.44058055s-5.11444537-16.34673095-12.7746469-19.9245494l-82.2554203-40.3593967c-5.62474325-2.55722269-13.28494365-2.55722269-18.39365576 0l-18.90395363 9.19109404c-7.66593479 3.57781845-12.78038016 11.24375325-12.78038016 20.4348473 0 8.69226382 5.11444537 16.35246421 12.78038016 19.9302838l21.9657398 10.72772096-389.83312611 193.12765383c-3.57781845 1.53662691-7.66020039 1.53662691-10.7277221 0L123.92711395 502.74010112l21.46117632-10.22315747c7.66020039-3.57781845 12.7689125-11.23801885 12.7689125-20.43484616 0-8.68653056-5.10871211-16.34673095-12.7689125-20.43484728l-19.41998478-9.20256171c-6.12930787-2.55148942-12.7689125-2.55148942-19.40851826 0l-82.26688796 40.36512995c-7.65446713 3.57781845-12.7689125 11.24375325-12.7689125 20.43484729 0.51029789 8.68653056 5.11444537 16.35246421 12.7689125 19.93028267z" p-id="2693"></path><path d="M36.55724829 326.98550727l471.07368504 230.92982898c3.57208519 2.0469248 8.17049827 2.55722269 12.25861462 2.55722268 4.59841422 0 8.68653056-1.02059577 13.28494478-2.55722268l471.06795178-231.95615801c9.70712633-4.59841422 15.83643307-14.30553941 15.83643307-25.03326151 0-11.23801885-6.63960576-20.94514517-16.85702883-25.03326038l-471.06795179-231.956158c-7.66593479-3.58355171-16.8627621-3.58355171-25.54929266 0l-470.04735601 231.956158c-9.70139193 5.10297771-15.32613518 14.8158373-15.32613632 25.54355826-0.51029789 10.73345536 5.62474325 20.43484729 15.32613632 25.54929266z m483.33229966-221.74446706l395.96243399 195.17457864-395.96243399 195.16884536-395.962434-195.16884536 395.962434-195.17457864z m494.57031964 576.83147321l-82.26115356-40.36512995c-5.61327559-2.55148942-13.27921038-2.55148942-18.38792249 0l-18.90395364 9.19109404c-7.66593479 3.57781845-12.7746469 11.24375325-12.77464689 20.44058055s5.10871211 16.35246421 12.77464689 19.92455055l21.97147421 10.72772096-389.83886052 193.12765382c-3.57208519 1.53662691-7.66020039 1.53662691-10.7277221 0l-391.36401976-192.1013248 21.45544305-10.21742307c7.66593479-3.57781845 12.78038016-11.23801885 12.78038016-20.44058169 0-8.68079616-5.11444537-16.34673095-12.78038016-20.43484729L126.99463453 642.72797923c-6.12930787-2.55722269-12.7746469-2.55722269-19.41998592 0l-82.25542031 40.3593967c-7.66593479 3.57781845-12.7746469 11.24375325-12.77464576 20.44058055s5.10871211 16.34673095 12.77464576 19.92454941l485.37349234 238.09119914c3.06752057 1.01486251 6.12930787 2.04119154 9.19682731 2.0411904 3.06178731 0 6.63960576-0.51603115 9.70712632-2.0411904l484.86319332-239.11179492c7.66593479-3.57781845 12.7746469-11.23801885 12.7746469-20.44058054 0-9.19109405-5.10871211-16.34673095-12.7746469-19.91881615z" p-id="2694"></path></svg>